<svg xmlns="http://www.w3.org/2000/svg" width="98.235" height="101.902" viewBox="0 0 98.235 101.902">
  <g id="event_2_" data-name="event (2)" transform="translate(-7.804)" opacity="0.125">
    <g id="Group_1660" data-name="Group 1660" transform="translate(7.804)">
      <g id="Group_1659" data-name="Group 1659" transform="translate(0)">
        <path id="Path_6092" data-name="Path 6092" d="M97.325,11.054q-.312-.013-.625,0H88.842V4.3c0-2.7-2.578-4.3-5.279-4.3H76.319c-2.7,0-4.665,1.6-4.665,4.3V11.05H42.188V4.3c0-2.7-1.964-4.3-4.665-4.3H30.279C27.578,0,25,1.6,25,4.3V11.05H17.142a9.085,9.085,0,0,0-9.335,8.829q-.009.312,0,.625V91.467c0,5.4,3.929,10.436,9.331,10.436H96.7c5.4,0,9.331-5.034,9.331-10.436V20.5A9.085,9.085,0,0,0,97.325,11.054ZM76.319,4.911h7.612V18.416H76.319Zm-46.04,0h7V18.416h-7V4.911ZM101.12,91.467c0,2.7-1.719,5.525-4.42,5.525H17.142c-2.7,0-4.42-2.824-4.42-5.525V39.288h88.4Zm0-70.963V34.377h-88.4V20.5a4.174,4.174,0,0,1,4.42-4.542H25v2.7c0,2.7,2.578,4.665,5.279,4.665h7.244a4.543,4.543,0,0,0,4.665-4.417q0-.124,0-.249v-2.7H71.654v2.7a4.543,4.543,0,0,0,4.417,4.665q.124,0,.249,0h7.244c2.7,0,5.279-1.964,5.279-4.665v-2.7H96.7a4.175,4.175,0,0,1,4.42,4.543Z" transform="translate(-7.804 0)" fill="#fff"/>
        <path id="Path_6093" data-name="Path 6093" d="M127.309,221.369l-2.21,12.277a2.455,2.455,0,0,0,3.56,2.578l11.05-5.77,11.05,5.77,1.1.246a2.332,2.332,0,0,0,1.473-.491,2.456,2.456,0,0,0,.982-2.333l-2.21-12.277,8.963-8.594a2.7,2.7,0,0,0,.614-2.578,2.579,2.579,0,0,0-1.964-1.6l-12.277-1.842-5.525-11.172a2.455,2.455,0,0,0-4.42,0l-5.525,11.172L119.7,208.6a2.578,2.578,0,0,0-1.964,1.6,2.7,2.7,0,0,0,.614,2.578Z" transform="translate(-91.82 -148.564)" fill="#fff"/>
      </g>
    </g>
  </g>
</svg>
